<svg fill="none" height="20" viewBox="0 0 20 20" width="20" xmlns="http://www.w3.org/2000/svg"><path d="m11.5 20c-4.69442 0-8.5-3.8056-8.5-8.5 0-4.69442 3.80558-8.5 8.5-8.5 4.6944 0 8.5 3.80558 8.5 8.5 0 4.6944-3.8056 8.5-8.5 8.5z" fill="#4287f5" opacity=".8"/><g fill="#000"><path clip-rule="evenodd" d="m1.5 10c0 4.6944 3.80558 8.5 8.5 8.5 4.6944 0 8.5-3.8056 8.5-8.5 0-4.69442-3.8056-8.5-8.5-8.5-4.69442 0-8.5 3.80558-8.5 8.5zm16 0c0 4.1421-3.3579 7.5-7.5 7.5-4.14214 0-7.5-3.3579-7.5-7.5 0-4.14214 3.35786-7.5 7.5-7.5 4.1421 0 7.5 3.35786 7.5 7.5z" fill-rule="evenodd"/><path clip-rule="evenodd" d="m6.5 10c0 4.3955 1.44179 8 3.5 8 2.0582 0 3.5-3.6045 3.5-8 0-4.39552-1.4418-8-3.5-8-2.05821 0-3.5 3.60448-3.5 8zm6 0c0 3.8887-1.2445 7-2.5 7s-2.5-3.1113-2.5-7c0-3.88875 1.2445-7 2.5-7s2.5 3.11125 2.5 7z" fill-rule="evenodd"/><path d="m3.7345 5.31155.67077-.74166c.10647.09629.22083.19027.3427.28157 1.31765.98723 3.39837 1.58926 5.66533 1.58926 1.9326 0 3.7368-.43646 5.055-1.19044.3211-.1836.6082-.38348.857-.59605l.6496.7603c-.2977.25439-.6362.48997-1.0101.7038-1.4766.84458-3.4517 1.32239-5.5515 1.32239-2.47108 0-4.76187-.66281-6.26494-1.78896-.14616-.1095-.28426-.223-.41386-.34021z"/><path d="m3.7345 14.6991.67077.7416c.10647-.0963.22083-.1902.3427-.2815 1.31765-.9873 3.39837-1.5893 5.66533-1.5893 1.9326 0 3.7368.4365 5.055 1.1904.3211.1836.6082.3835.857.5961l.6496-.7603c-.2977-.2544-.6362-.49-1.0101-.7038-1.4766-.8446-3.4517-1.3224-5.5515-1.3224-2.47108 0-4.76187.6628-6.26494 1.789-.14616.1095-.28426.223-.41386.3402z"/><path d="m2 10.5v-1h16v1z"/></g></svg>